<svg xmlns="http://www.w3.org/2000/svg" width="850" height="300" viewBox="0 0 850 300">
  <defs>
    <style>
      /* === WAVES === */
      @keyframes waveScroll {
        from { transform: translateX(0) }
        to   { transform: translateX(-420px) }
      }

      /* === TEXT FLOAT (smooth breathing) === */
      @keyframes float {
        0%, 100% { transform: translateY(0) }
        50%      { transform: translateY(-9px) }
      }

      /* === TEXT GLITCH (periodic cyberpunk jitter) === */
      @keyframes glitch {
        0%, 87%, 100%  { transform: translate(0, 0); }
        88%            { transform: translate(-6px, 2px); }
        89%            { transform: translate(5px, -1px); }
        90%            { transform: translate(-3px, 0); }
        91%            { transform: translate(0, 0); }
      }

      /* === GLOW THROB === */
      @keyframes throb {
        0%, 100% { opacity: 0.15 }
        50%      { opacity: 0.35 }
      }

      /* === BUBBLES === */
      @keyframes riseA {
        0%   { transform: translateY(0) translateX(0); opacity: 0 }
        8%   { opacity: 0.7 }
        75%  { opacity: 0.25 }
        100% { transform: translateY(-260px) translateX(22px); opacity: 0 }
      }
      @keyframes riseB {
        0%   { transform: translateY(0) translateX(0); opacity: 0 }
        8%   { opacity: 0.6 }
        75%  { opacity: 0.2 }
        100% { transform: translateY(-240px) translateX(-18px); opacity: 0 }
      }

      /* === GEOMETRIC MESH (replaces lame blobs) === */
      @keyframes meshA {
        0%, 100% { transform: translate(0,0); opacity: 0.09 }
        33%      { transform: translate(10px,-6px); opacity: 0.18 }
        66%      { transform: translate(-7px,4px); opacity: 0.07 }
      }
      @keyframes meshB {
        0%, 100% { transform: translate(0,0); opacity: 0.07 }
        40%      { transform: translate(-8px,8px); opacity: 0.16 }
        70%      { transform: translate(5px,-5px); opacity: 0.06 }
      }

      /* === PARTICLES === */
      @keyframes driftA {
        0%, 100% { transform: translate(0,0) }
        50%      { transform: translate(10px,-15px) }
      }
      @keyframes driftB {
        0%, 100% { transform: translate(0,0) }
        50%      { transform: translate(-12px,10px) }
      }

      /* === LIGHT RAYS === */
      @keyframes rayPulse {
        0%, 100% { opacity: 0.04 }
        50%      { opacity: 0.1 }
      }

      /* === SWEEPING SCANLINE (horizontal bar scrolls down) === */
      @keyframes sweep {
        0%   { transform: translateY(-10px) }
        100% { transform: translateY(310px) }
      }

      /* === RIPPLE PING (expanding circles) === */
      @keyframes ripple {
        0%   { r: 4; opacity: 0.2; stroke-width: 1.5 }
        100% { r: 55; opacity: 0; stroke-width: 0.3 }
      }

      /* ---- WAVE CLASSES ---- */
      .w-abyss   { animation: waveScroll 16s linear infinite }
      .w-deep    { animation: waveScroll 11s linear infinite }
      .w-mid     { animation: waveScroll 7.5s linear infinite }
      .w-surface { animation: waveScroll 4.8s linear infinite }

      /* ---- TEXT ---- */
      .txt-glitch { animation: glitch 4s ease-in-out infinite }
      .txt-float  { animation: float 5s ease-in-out infinite }
      .txt-throb  { animation: throb 3.5s ease-in-out infinite }

      /* ---- MESH CAUSTICS ---- */
      .m1 { animation: meshA 9s ease-in-out infinite }
      .m2 { animation: meshB 12s ease-in-out infinite 2.5s }
      .m3 { animation: meshA 10s ease-in-out infinite 5s }
      .m4 { animation: meshB 14s ease-in-out infinite 1s }
      .m5 { animation: meshA 11s ease-in-out infinite 7s }

      /* ---- PARTICLES ---- */
      .d1  { animation: driftA 14s ease-in-out infinite }
      .d2  { animation: driftB 18s ease-in-out infinite 2s }
      .d3  { animation: driftA 16s ease-in-out infinite 5s }
      .d4  { animation: driftB 13s ease-in-out infinite 3s }
      .d5  { animation: driftA 15s ease-in-out infinite 7s }
      .d6  { animation: driftB 17s ease-in-out infinite 1s }
      .d7  { animation: driftA 19s ease-in-out infinite 4s }
      .d8  { animation: driftB 14s ease-in-out infinite 6s }
      .d9  { animation: driftA 16s ease-in-out infinite 8s }
      .d10 { animation: driftB 15s ease-in-out infinite 0.5s }
      .d11 { animation: driftA 18s ease-in-out infinite 3.5s }
      .d12 { animation: driftB 13s ease-in-out infinite 5.5s }
      .d13 { animation: driftA 17s ease-in-out infinite 2.5s }
      .d14 { animation: driftB 14s ease-in-out infinite 7.5s }
      .d15 { animation: driftA 19s ease-in-out infinite 1.5s }
      .d16 { animation: driftB 16s ease-in-out infinite 4.5s }
      .d17 { animation: driftA 15s ease-in-out infinite 6.5s }
      .d18 { animation: driftB 18s ease-in-out infinite 0s }

      /* ---- BUBBLES ---- */
      .b1  { animation: riseA 5.5s linear infinite 0s }
      .b2  { animation: riseB 7.5s linear infinite 1.8s }
      .b3  { animation: riseA 6.5s linear infinite 0.7s }
      .b4  { animation: riseB 8.5s linear infinite 3.2s }
      .b5  { animation: riseA 6s   linear infinite 2s }
      .b6  { animation: riseB 9s   linear infinite 4.5s }
      .b7  { animation: riseA 7s   linear infinite 5s }
      .b8  { animation: riseB 8s   linear infinite 1.2s }
      .b9  { animation: riseA 10s  linear infinite 6s }
      .b10 { animation: riseB 6.5s linear infinite 3s }
      .b11 { animation: riseA 7.5s linear infinite 7s }
      .b12 { animation: riseB 5.5s linear infinite 2.5s }
      .b13 { animation: riseA 8s   linear infinite 4s }
      .b14 { animation: riseB 9.5s linear infinite 5.5s }
      .b15 { animation: riseA 6s   linear infinite 8s }

      /* ---- LIGHT RAYS ---- */
      .ray1 { animation: rayPulse 7s ease-in-out infinite }
      .ray2 { animation: rayPulse 9s ease-in-out infinite 2.5s }
      .ray3 { animation: rayPulse 8s ease-in-out infinite 4s }
      .ray4 { animation: rayPulse 10s ease-in-out infinite 1s }
      .ray5 { animation: rayPulse 8.5s ease-in-out infinite 5.5s }

      /* ---- SWEEPING SCANLINE ---- */
      .sweep { animation: sweep 8s linear infinite }

      /* ---- RIPPLES ---- */
      .rip1 { animation: ripple 6s ease-out infinite }
      .rip2 { animation: ripple 8s ease-out infinite 2.5s }
      .rip3 { animation: ripple 7s ease-out infinite 4.5s }
      .rip4 { animation: ripple 9s ease-out infinite 1s }
    </style>

    <!-- ============ GRADIENTS ============ -->
    <linearGradient id="bg" x1="0" y1="0" x2="0" y2="1">
      <stop offset="0%"   stop-color="#0c1222"/>
      <stop offset="30%"  stop-color="#08102e"/>
      <stop offset="65%"  stop-color="#060b24"/>
      <stop offset="100%" stop-color="#020408"/>
    </linearGradient>
    <linearGradient id="mood" x1="0" y1="0" x2="1" y2="1">
      <stop offset="0%"   stop-color="#1a0833"/>
      <stop offset="50%"  stop-color="#140a2a"/>
      <stop offset="100%" stop-color="#081a30"/>
    </linearGradient>
    <linearGradient id="rayFill" x1="0" y1="0" x2="0" y2="1">
      <stop offset="0%"   stop-color="#00e5ff" stop-opacity="0.15"/>
      <stop offset="40%"  stop-color="#00e5ff" stop-opacity="0.06"/>
      <stop offset="100%" stop-color="#00e5ff" stop-opacity="0"/>
    </linearGradient>
    <linearGradient id="wfAbyss" x1="0" y1="0" x2="1" y2="0">
      <stop offset="0%"   stop-color="#072f45" stop-opacity="0.7"/>
      <stop offset="50%"  stop-color="#0a3d5c" stop-opacity="0.55"/>
      <stop offset="100%" stop-color="#072f45" stop-opacity="0.7"/>
    </linearGradient>
    <linearGradient id="wfDeep" x1="0" y1="0" x2="1" y2="0">
      <stop offset="0%"   stop-color="#0c5068" stop-opacity="0.6"/>
      <stop offset="50%"  stop-color="#0e7490" stop-opacity="0.45"/>
      <stop offset="100%" stop-color="#0c5068" stop-opacity="0.6"/>
    </linearGradient>
    <linearGradient id="wfMid" x1="0" y1="0" x2="1" y2="0">
      <stop offset="0%"   stop-color="#0e7490" stop-opacity="0.45"/>
      <stop offset="50%"  stop-color="#06b6d4" stop-opacity="0.3"/>
      <stop offset="100%" stop-color="#0e7490" stop-opacity="0.45"/>
    </linearGradient>
    <linearGradient id="wfSurf" x1="0" y1="0" x2="1" y2="0">
      <stop offset="0%"   stop-color="#22d3ee" stop-opacity="0.3"/>
      <stop offset="50%"  stop-color="#67e8f9" stop-opacity="0.2"/>
      <stop offset="100%" stop-color="#22d3ee" stop-opacity="0.3"/>
    </linearGradient>
    <radialGradient id="vig" cx="50%" cy="40%" r="55%">
      <stop offset="0%"   stop-color="transparent"/>
      <stop offset="100%" stop-color="#000" stop-opacity="0.5"/>
    </radialGradient>
    <!-- Sweep line gradient: transparent edges, bright center -->
    <linearGradient id="sweepFill" x1="0" y1="0" x2="0" y2="1">
      <stop offset="0%"   stop-color="#00e5ff" stop-opacity="0"/>
      <stop offset="40%"  stop-color="#00e5ff" stop-opacity="0.06"/>
      <stop offset="50%"  stop-color="#00e5ff" stop-opacity="0.12"/>
      <stop offset="60%"  stop-color="#00e5ff" stop-opacity="0.06"/>
      <stop offset="100%" stop-color="#00e5ff" stop-opacity="0"/>
    </linearGradient>

    <!-- ============ FILTERS ============ -->
    <filter id="megaGlow" x="-80%" y="-80%" width="260%" height="260%">
      <feGaussianBlur in="SourceGraphic" stdDeviation="5"  result="b1"/>
      <feGaussianBlur in="SourceGraphic" stdDeviation="14" result="b2"/>
      <feGaussianBlur in="SourceGraphic" stdDeviation="28" result="b3"/>
      <feGaussianBlur in="SourceGraphic" stdDeviation="45" result="b4"/>
      <feMerge>
        <feMergeNode in="b4"/>
        <feMergeNode in="b3"/>
        <feMergeNode in="b2"/>
        <feMergeNode in="b1"/>
        <feMergeNode in="SourceGraphic"/>
      </feMerge>
    </filter>
    <filter id="medGlow" x="-50%" y="-50%" width="200%" height="200%">
      <feGaussianBlur in="SourceGraphic" stdDeviation="3" result="b1"/>
      <feGaussianBlur in="SourceGraphic" stdDeviation="8" result="b2"/>
      <feMerge>
        <feMergeNode in="b2"/>
        <feMergeNode in="b1"/>
        <feMergeNode in="SourceGraphic"/>
      </feMerge>
    </filter>
    <filter id="lineGlow" x="-10%" y="-400%" width="120%" height="900%">
      <feGaussianBlur in="SourceGraphic" stdDeviation="4" result="blur"/>
      <feMerge>
        <feMergeNode in="blur"/>
        <feMergeNode in="SourceGraphic"/>
      </feMerge>
    </filter>
    <filter id="dotGlow" x="-300%" y="-300%" width="700%" height="700%">
      <feGaussianBlur in="SourceGraphic" stdDeviation="2.5" result="blur"/>
      <feMerge>
        <feMergeNode in="blur"/>
        <feMergeNode in="SourceGraphic"/>
      </feMerge>
    </filter>
    <!-- Mesh glow: subtle bloom on wireframe lines -->
    <filter id="meshGlow" x="-20%" y="-20%" width="140%" height="140%">
      <feGaussianBlur in="SourceGraphic" stdDeviation="3" result="blur"/>
      <feMerge>
        <feMergeNode in="blur"/>
        <feMergeNode in="SourceGraphic"/>
      </feMerge>
    </filter>

    <!-- ============ PATTERNS ============ -->
    <pattern id="scan" x="0" y="0" width="4" height="4" patternUnits="userSpaceOnUse">
      <rect width="4" height="1" fill="white" opacity="0.03"/>
    </pattern>
  </defs>

  <!-- ==========================================================
       LAYER 1 — ABYSS BACKGROUND
       ========================================================== -->
  <rect width="850" height="300" fill="url(#bg)"/>
  <rect width="850" height="300" fill="url(#mood)" opacity="0">
    <animate attributeName="opacity" values="0;0.35;0" dur="10s" repeatCount="indefinite"/>
  </rect>

  <!-- ==========================================================
       LAYER 2 — VOLUMETRIC LIGHT RAYS
       ========================================================== -->
  <g>
    <rect class="ray1" x="80"  y="-40" width="45" height="280" fill="url(#rayFill)" transform="rotate(14 425 150)" opacity="0.05"/>
    <rect class="ray2" x="250" y="-40" width="30" height="300" fill="url(#rayFill)" transform="rotate(-10 425 150)" opacity="0.04"/>
    <rect class="ray3" x="450" y="-40" width="40" height="270" fill="url(#rayFill)" transform="rotate(18 425 150)" opacity="0.05"/>
    <rect class="ray4" x="620" y="-40" width="25" height="290" fill="url(#rayFill)" transform="rotate(-7 425 150)" opacity="0.04"/>
    <rect class="ray5" x="750" y="-40" width="35" height="260" fill="url(#rayFill)" transform="rotate(11 425 150)" opacity="0.04"/>
  </g>

  <!-- ==========================================================
       LAYER 3 — GEOMETRIC CAUSTIC MESHES
       Voronoi-like wireframes that pulse — replaces boring blobs.
       Each cluster is an irregular polygon network in thin strokes.
       ========================================================== -->
  <g filter="url(#meshGlow)">
    <!-- Mesh cluster 1: left (cyan) -->
    <g class="m1">
      <path d="M85,75 L130,55 L175,72 L168,112 L128,118 L92,105 Z
               M130,55 L185,42 L210,68 L175,72
               M168,112 L205,135 L210,68
               M128,118 L95,140 L68,108 L85,75
               M92,105 L60,85 L85,75"
            stroke="#06b6d4" stroke-width="0.6" fill="none" opacity="0.09"/>
    </g>

    <!-- Mesh cluster 2: center-left (magenta) -->
    <g class="m2">
      <path d="M320,60 L368,42 L415,55 L420,95 L375,108 L330,98 Z
               M368,42 L425,30 L448,58 L415,55
               M420,95 L455,115 L448,58
               M375,108 L350,135 L310,120 L320,60
               M330,98 L295,78 L320,60"
            stroke="#d946ef" stroke-width="0.5" fill="none" opacity="0.07"/>
    </g>

    <!-- Mesh cluster 3: center-right (cyan) -->
    <g class="m3">
      <path d="M540,85 L582,62 L628,78 L632,118 L590,130 L548,120 Z
               M582,62 L640,48 L660,75 L628,78
               M632,118 L665,142 L660,75
               M590,130 L560,155 L525,138 L540,85"
            stroke="#06b6d4" stroke-width="0.6" fill="none" opacity="0.09"/>
    </g>

    <!-- Mesh cluster 4: right (magenta) -->
    <g class="m4">
      <path d="M720,55 L762,38 L800,52 L805,88 L768,100 L728,92 Z
               M762,38 L818,28 L835,55 L800,52
               M805,88 L835,108 L835,55
               M768,100 L745,122 L710,108 L720,55"
            stroke="#d946ef" stroke-width="0.5" fill="none" opacity="0.07"/>
    </g>

    <!-- Mesh cluster 5: lower center (cyan, larger) -->
    <g class="m5">
      <path d="M260,155 L315,138 L370,148 L378,185 L330,198 L275,190 Z
               M315,138 L380,128 L400,155 L370,148
               M378,185 L410,208 L400,155
               M330,198 L300,220 L255,205 L260,155"
            stroke="#06b6d4" stroke-width="0.5" fill="none" opacity="0.08"/>
    </g>
  </g>

  <!-- ==========================================================
       LAYER 3b — RIPPLE PINGS (sonar/water rings)
       ========================================================== -->
  <circle class="rip1" cx="180" cy="120" r="4" fill="none" stroke="#06b6d4" stroke-width="1.5" opacity="0.2"/>
  <circle class="rip2" cx="580" cy="85"  r="4" fill="none" stroke="#d946ef" stroke-width="1.5" opacity="0.15"/>
  <circle class="rip3" cx="720" cy="160" r="4" fill="none" stroke="#06b6d4" stroke-width="1.5" opacity="0.18"/>
  <circle class="rip4" cx="350" cy="175" r="4" fill="none" stroke="#d946ef" stroke-width="1.5" opacity="0.12"/>

  <!-- ==========================================================
       LAYER 4 — DEEP PARTICLES (glowing digital plankton)
       ========================================================== -->
  <g filter="url(#dotGlow)">
    <circle class="d1"  cx="65"  cy="50"  r="1.2" fill="#00e5ff" opacity="0.5"/>
    <circle class="d2"  cx="165" cy="88"  r="0.9" fill="#67e8f9" opacity="0.4"/>
    <circle class="d3"  cx="270" cy="38"  r="1.4" fill="#00e5ff" opacity="0.45"/>
    <circle class="d4"  cx="360" cy="105" r="0.8" fill="#d946ef" opacity="0.35"/>
    <circle class="d5"  cx="450" cy="62"  r="1.1" fill="#00e5ff" opacity="0.5"/>
    <circle class="d6"  cx="540" cy="35"  r="0.9" fill="#67e8f9" opacity="0.4"/>
    <circle class="d7"  cx="630" cy="95"  r="1.3" fill="#d946ef" opacity="0.35"/>
    <circle class="d8"  cx="720" cy="48"  r="0.8" fill="#00e5ff" opacity="0.45"/>
    <circle class="d9"  cx="810" cy="80"  r="1.0" fill="#67e8f9" opacity="0.4"/>
    <circle class="d10" cx="110" cy="165" r="1.0" fill="#00e5ff" opacity="0.4"/>
    <circle class="d11" cx="230" cy="148" r="1.2" fill="#d946ef" opacity="0.3"/>
    <circle class="d12" cx="490" cy="155" r="0.9" fill="#00e5ff" opacity="0.45"/>
    <circle class="d13" cx="670" cy="140" r="1.1" fill="#67e8f9" opacity="0.35"/>
    <circle class="d14" cx="780" cy="170" r="0.8" fill="#00e5ff" opacity="0.4"/>
    <circle class="d15" cx="40"  cy="120" r="1.0" fill="#67e8f9" opacity="0.35"/>
    <circle class="d16" cx="340" cy="70"  r="0.7" fill="#a5f3fc" opacity="0.5"/>
    <circle class="d17" cx="570" cy="115" r="1.2" fill="#00e5ff" opacity="0.4"/>
    <circle class="d18" cx="190" cy="30"  r="0.9" fill="#d946ef" opacity="0.35"/>
  </g>

  <!-- ==========================================================
       LAYER 5 — HORIZONTAL NEON ACCENT LINE
       ========================================================== -->
  <line x1="0" y1="192" x2="850" y2="192" stroke="#06b6d4" stroke-width="0.6" opacity="0.12" filter="url(#lineGlow)"/>
  <line x1="0" y1="193" x2="850" y2="193" stroke="#d946ef" stroke-width="0.3" opacity="0.06"/>

  <!-- ==========================================================
       LAYER 6 — "pyserf" NEON TEXT
       Outer group = glitch jitter, inner group = smooth float
       ========================================================== -->

  <!-- Glitch wrapper: periodic horizontal jitter -->
  <g class="txt-glitch">

    <!-- 6a: Wide atmospheric haze -->
    <g class="txt-float">
      <text x="425" y="140" text-anchor="middle"
            font-family="'Courier New',Courier,monospace"
            font-size="76" font-weight="bold" letter-spacing="10"
            fill="#00e5ff" opacity="0.08" filter="url(#megaGlow)">pyserf</text>
    </g>

    <!-- 6b: Chromatic aberration -->
    <g class="txt-float">
      <text x="420" y="141" text-anchor="middle"
            font-family="'Courier New',Courier,monospace"
            font-size="76" font-weight="bold" letter-spacing="10"
            fill="#ff0050" opacity="0.12">pyserf</text>
      <text x="430" y="139" text-anchor="middle"
            font-family="'Courier New',Courier,monospace"
            font-size="76" font-weight="bold" letter-spacing="10"
            fill="#0055ff" opacity="0.12">pyserf</text>
    </g>

    <!-- 6c: Primary neon bloom -->
    <g class="txt-float">
      <text x="425" y="140" text-anchor="middle"
            font-family="'Courier New',Courier,monospace"
            font-size="76" font-weight="bold" letter-spacing="10"
            fill="#00e5ff" opacity="0.25" filter="url(#megaGlow)">pyserf</text>
    </g>

    <!-- 6d: Bright core text -->
    <g class="txt-float">
      <text x="425" y="140" text-anchor="middle"
            font-family="'Courier New',Courier,monospace"
            font-size="76" font-weight="bold" letter-spacing="10"
            fill="#00e5ff" filter="url(#medGlow)">pyserf</text>
    </g>

    <!-- 6e: Hot white center -->
    <g class="txt-float">
      <text x="425" y="140" text-anchor="middle"
            font-family="'Courier New',Courier,monospace"
            font-size="76" font-weight="bold" letter-spacing="10"
            fill="#b0f5ff" opacity="0.6">pyserf</text>
    </g>

    <!-- 6f: Pulsing throb -->
    <g class="txt-float txt-throb">
      <text x="425" y="140" text-anchor="middle"
            font-family="'Courier New',Courier,monospace"
            font-size="76" font-weight="bold" letter-spacing="10"
            fill="#00e5ff" opacity="0.15" filter="url(#megaGlow)">pyserf</text>
    </g>

    <!-- 6g: Neon underline -->
    <g class="txt-float">
      <line x1="275" y1="160" x2="575" y2="160"
            stroke="#00e5ff" stroke-width="2" opacity="0.5" filter="url(#lineGlow)"/>
      <line x1="310" y1="160" x2="540" y2="160"
            stroke="#b0f5ff" stroke-width="0.6" opacity="0.8"/>
    </g>

  </g><!-- end glitch wrapper -->

  <!-- ==========================================================
       LAYER 7 — BUBBLES
       ========================================================== -->
  <g filter="url(#dotGlow)">
    <circle class="b1"  cx="120" cy="285" r="3.5" fill="#67e8f9" opacity="0"/>
    <circle class="b2"  cx="215" cy="290" r="2.5" fill="#a5f3fc" opacity="0"/>
    <circle class="b3"  cx="305" cy="280" r="4"   fill="#67e8f9" opacity="0"/>
    <circle class="b4"  cx="385" cy="292" r="2.5" fill="#67e8f9" opacity="0"/>
    <circle class="b5"  cx="455" cy="282" r="4.5" fill="#a5f3fc" opacity="0"/>
    <circle class="b6"  cx="530" cy="288" r="3"   fill="#67e8f9" opacity="0"/>
    <circle class="b7"  cx="615" cy="278" r="3.5" fill="#a5f3fc" opacity="0"/>
    <circle class="b8"  cx="695" cy="290" r="2.5" fill="#67e8f9" opacity="0"/>
    <circle class="b9"  cx="75"  cy="284" r="3"   fill="#a5f3fc" opacity="0"/>
    <circle class="b10" cx="775" cy="280" r="4"   fill="#67e8f9" opacity="0"/>
    <circle class="b11" cx="170" cy="286" r="2"   fill="#d946ef" opacity="0"/>
    <circle class="b12" cx="490" cy="282" r="3.5" fill="#67e8f9" opacity="0"/>
    <circle class="b13" cx="350" cy="288" r="2.5" fill="#a5f3fc" opacity="0"/>
    <circle class="b14" cx="650" cy="284" r="3"   fill="#d946ef" opacity="0"/>
    <circle class="b15" cx="420" cy="278" r="4"   fill="#a5f3fc" opacity="0"/>
  </g>

  <!-- ==========================================================
       LAYER 8 — WAVES (4 layers)
       ========================================================== -->
  <g class="w-abyss">
    <path d="M0,195 C70,172 140,218 210,195 C280,175 350,215 420,195 C490,172 560,218 630,195 C700,175 770,215 840,195 C910,172 980,218 1050,195 C1120,175 1190,215 1260,195 L1260,300 L0,300 Z"
          fill="url(#wfAbyss)"/>
  </g>
  <g class="w-deep">
    <path d="M0,215 C70,198 140,232 210,215 C280,200 350,230 420,215 C490,198 560,232 630,215 C700,200 770,230 840,215 C910,198 980,232 1050,215 C1120,200 1190,230 1260,215 L1260,300 L0,300 Z"
          fill="url(#wfDeep)"/>
  </g>
  <g class="w-mid">
    <path d="M0,235 C70,222 140,248 210,235 C280,224 350,246 420,235 C490,222 560,248 630,235 C700,224 770,246 840,235 C910,222 980,248 1050,235 C1120,224 1190,246 1260,235 L1260,300 L0,300 Z"
          fill="url(#wfMid)"/>
  </g>
  <g class="w-surface">
    <path d="M0,255 C70,245 140,265 210,255 C280,247 350,263 420,255 C490,245 560,265 630,255 C700,247 770,263 840,255 C910,245 980,265 1050,255 C1120,247 1190,263 1260,255 L1260,300 L0,300 Z"
          fill="url(#wfSurf)"/>
  </g>

  <!-- ==========================================================
       LAYER 9 — SWEEPING SCANLINE
       A bright horizontal bar that scrolls top-to-bottom
       ========================================================== -->
  <rect class="sweep" x="0" y="-10" width="850" height="20" fill="url(#sweepFill)"/>

  <!-- ==========================================================
       LAYER 10 — OVERLAYS (vignette + scanlines)
       ========================================================== -->
  <rect width="850" height="300" fill="url(#vig)"/>
  <rect width="850" height="300" fill="url(#scan)"/>
</svg>
